<svg width="172" height="31" viewBox="0 0 172 31" fill="none" xmlns="http://www.w3.org/2000/svg">
<path d="M2.98023e-08 30H7.08V1.4H2.98023e-08V30ZM22.4147 30.68C29.0147 30.68 34.1347 27.36 34.1347 21.36C34.1347 15.24 29.3347 13.6 24.0147 12.36C19.7347 11.4 17.5347 10.92 17.5347 8.92C17.5347 7.32 19.1747 6.24 21.6547 6.24C24.2947 6.24 25.9747 7.48 26.2547 9.68H33.1747C32.8947 3.68 28.0947 0.879998 21.8947 0.879998C15.4947 0.879998 10.5347 3.56 10.5347 9.68C10.5347 15.68 15.7747 17.2 20.7347 18.36C24.6547 19.32 26.9747 19.8 26.9747 22.08C26.9747 24.24 24.6947 25.08 22.3747 25.08C18.9747 25.08 17.0947 23.88 16.7747 21H9.65469C9.81469 27.32 14.8147 30.68 22.4147 30.68ZM43.0547 30H50.1347V7.4H58.5347V1.4H34.7347V7.4H43.0547V30Z" fill="#F76902"/>
<path d="M80.3419 30.64C84.3819 30.64 87.3019 29.52 89.5019 27.4C91.4619 25.52 92.7419 22.92 92.9419 20.08H85.8619C85.5419 22.84 83.4619 24.84 80.3019 24.84C76.0619 24.84 73.4219 21.04 73.4219 15.8C73.4219 10.6 75.6219 6.72 80.2619 6.72C83.3019 6.72 85.3019 8.68 85.6619 11.24H92.7419C92.3819 8.04 90.9419 5.24 88.4619 3.36C86.4219 1.8 83.6219 0.839999 80.3019 0.839999C71.7819 0.839999 66.2219 7.28 66.2219 15.8C66.2219 24.36 71.9419 30.64 80.3419 30.64ZM92.4522 30H99.5722L101.212 24.84H111.212L112.892 30H120.332L110.012 1.4H102.732L92.4522 30ZM102.852 19.76L105.052 12.84C105.532 11.36 106.212 8.8 106.212 8.8H106.292C106.292 8.8 106.932 11.36 107.412 12.84L109.572 19.76H102.852ZM133.026 30.64C136.466 30.64 139.266 29.48 141.146 26.56H141.226L141.626 30H146.586V14.64H134.666V19.84H140.026V19.92C139.746 22.44 137.546 24.92 133.826 24.92C129.346 24.92 126.626 21.04 126.626 15.8C126.626 10.6 128.986 6.68 133.706 6.68C136.826 6.68 138.746 8.44 139.266 10.76H146.146C145.226 4.76 140.826 0.839999 133.466 0.839999C129.346 0.839999 126.026 2.24 123.666 4.64C120.946 7.36 119.426 11.32 119.426 15.8C119.426 20.16 120.786 23.92 123.266 26.64C125.626 29.2 128.946 30.64 133.026 30.64ZM150.038 30H171.958V24H157.118V17.88H169.638V12.36H157.118V7.24H171.718V1.4H150.038V30Z" fill="#252633"/>
</svg>
